<?xml version="1.0" encoding="UTF-8" standalone="no"?>
<svg
   xmlns:dc="http://purl.org/dc/elements/1.1/"
   xmlns:cc="http://creativecommons.org/ns#"
   xmlns:rdf="http://www.w3.org/1999/02/22-rdf-syntax-ns#"
   xmlns:svg="http://www.w3.org/2000/svg"
   xmlns="http://www.w3.org/2000/svg"
   xmlns:sodipodi="http://sodipodi.sourceforge.net/DTD/sodipodi-0.dtd"
   xmlns:inkscape="http://www.inkscape.org/namespaces/inkscape"
   inkscape:version="1.0 (4035a4fb49, 2020-05-01)"
   sodipodi:docname="back.svg"
   id="svg4"
   version="1.1"
   fill="none"
   viewBox="0 0 24 24"
   height="800px"
   width="800px">
  <metadata
     id="metadata10">
    <rdf:RDF>
      <cc:Work
         rdf:about="">
        <dc:format>image/svg+xml</dc:format>
        <dc:type
           rdf:resource="http://purl.org/dc/dcmitype/StillImage" />
      </cc:Work>
    </rdf:RDF>
  </metadata>
  <defs
     id="defs8" />
  <sodipodi:namedview
     inkscape:current-layer="svg4"
     inkscape:window-maximized="1"
     inkscape:window-y="-11"
     inkscape:window-x="-11"
     inkscape:cy="400"
     inkscape:cx="400"
     inkscape:zoom="1.075"
     showgrid="false"
     id="namedview6"
     inkscape:window-height="1046"
     inkscape:window-width="1920"
     inkscape:pageshadow="2"
     inkscape:pageopacity="0"
     guidetolerance="10"
     gridtolerance="10"
     objecttolerance="10"
     borderopacity="1"
     bordercolor="#666666"
     pagecolor="#ffffff" />
  <path
     style="fill:#ffce63;fill-opacity:1"
     id="path2"
     fill="#292D32"
     d="M16.19 2H7.81C4.17 2 2 4.17 2 7.81V16.18C2 19.83 4.17 22 7.81 22H16.18C19.82 22 21.99 19.83 21.99 16.19V7.81C22 4.17 19.83 2 16.19 2ZM13.92 16.13H9C8.59 16.13 8.25 15.79 8.25 15.38C8.25 14.97 8.59 14.63 9 14.63H13.92C15.2 14.63 16.25 13.59 16.25 12.3C16.25 11.01 15.21 9.97 13.92 9.97H8.85L9.11 10.23C9.4 10.53 9.4 11 9.1 11.3C8.95 11.45 8.76 11.52 8.57 11.52C8.38 11.52 8.19 11.45 8.04 11.3L6.47 9.72C6.18 9.43 6.18 8.95 6.47 8.66L8.04 7.09C8.33 6.8 8.81 6.8 9.1 7.09C9.39 7.38 9.39 7.86 9.1 8.15L8.77 8.48H13.92C16.03 8.48 17.75 10.2 17.75 12.31C17.75 14.42 16.03 16.13 13.92 16.13Z" />
</svg>
