<?xml version="1.0" encoding="UTF-8" standalone="no"?>
<svg
   xmlns:dc="http://purl.org/dc/elements/1.1/"
   xmlns:cc="http://creativecommons.org/ns#"
   xmlns:rdf="http://www.w3.org/1999/02/22-rdf-syntax-ns#"
   xmlns:svg="http://www.w3.org/2000/svg"
   xmlns="http://www.w3.org/2000/svg"
   xmlns:sodipodi="http://sodipodi.sourceforge.net/DTD/sodipodi-0.dtd"
   xmlns:inkscape="http://www.inkscape.org/namespaces/inkscape"
   inkscape:version="1.0 (4035a4fb49, 2020-05-01)"
   sodipodi:docname="shopping-cart2.svg"
   id="svg14"
   xml:space="preserve"
   viewBox="0 0 256 256"
   height="256"
   width="256"
   version="1.1"><metadata
   id="metadata18"><rdf:RDF><cc:Work
       rdf:about=""><dc:format>image/svg+xml</dc:format><dc:type
         rdf:resource="http://purl.org/dc/dcmitype/StillImage" /></cc:Work></rdf:RDF></metadata><sodipodi:namedview
   inkscape:current-layer="svg14"
   inkscape:window-maximized="1"
   inkscape:window-y="-11"
   inkscape:window-x="-11"
   inkscape:cy="128"
   inkscape:cx="128"
   inkscape:zoom="3.359375"
   showgrid="false"
   id="namedview16"
   inkscape:window-height="1046"
   inkscape:window-width="1920"
   inkscape:pageshadow="2"
   inkscape:pageopacity="0"
   guidetolerance="10"
   gridtolerance="10"
   objecttolerance="10"
   borderopacity="1"
   bordercolor="#666666"
   pagecolor="#ffffff" />

<defs
   id="defs2">
</defs>
<g
   id="g12"
   transform="translate(1.4065934065934016 1.4065934065934016) scale(2.81 2.81)"
   style="stroke:none;stroke-width:0;stroke-dasharray:none;stroke-linecap:butt;stroke-linejoin:miter;stroke-miterlimit:10;fill:#ffce63;fill-rule:nonzero;opacity:1;fill-opacity:1">
	<path
   id="path4"
   stroke-linecap="round"
   transform=" matrix(1 0 0 1 0 0) "
   style="stroke:none;stroke-width:1;stroke-dasharray:none;stroke-linecap:butt;stroke-linejoin:miter;stroke-miterlimit:10;fill:#ffce63;fill-rule:nonzero;opacity:1;fill-opacity:1"
   d="M 73.713 65.44 H 27.689 c -3.566 0 -6.377 -2.578 -6.686 -6.13 c -0.21 -2.426 0.807 -4.605 2.592 -5.939 L 16.381 21.07 c -0.199 -0.889 0.017 -1.819 0.586 -2.53 s 1.431 -1.124 2.341 -1.124 H 87 c 0.972 0 1.884 0.471 2.446 1.263 c 0.563 0.792 0.706 1.808 0.386 2.725 l -7.798 22.344 c -1.091 3.13 -3.798 5.429 -7.063 5.999 l -47.389 8.281 c -0.011 0.001 -0.021 0.003 -0.032 0.005 c -0.228 0.04 -0.623 0.126 -0.568 0.759 c 0.056 0.648 0.48 0.648 0.708 0.648 h 46.024 c 1.657 0 3 1.343 3 3 S 75.37 65.44 73.713 65.44 z" />
	<circle
   id="circle6"
   transform="  matrix(1 0 0 1 0 0) "
   style="stroke:none;stroke-width:1;stroke-dasharray:none;stroke-linecap:butt;stroke-linejoin:miter;stroke-miterlimit:10;fill:#ffce63;fill-rule:nonzero;opacity:1;fill-opacity:1"
   r="6.5"
   cy="75.8"
   cx="28.25" />
	<circle
   id="circle8"
   transform="  matrix(1 0 0 1 0 0) "
   style="stroke:none;stroke-width:1;stroke-dasharray:none;stroke-linecap:butt;stroke-linejoin:miter;stroke-miterlimit:10;fill:#ffce63;fill-rule:nonzero;opacity:1;fill-opacity:1"
   r="6.5"
   cy="75.8"
   cx="68.28999999999999" />
	<path
   id="path10"
   stroke-linecap="round"
   transform=" matrix(1 0 0 1 0 0) "
   style="stroke:none;stroke-width:1;stroke-dasharray:none;stroke-linecap:butt;stroke-linejoin:miter;stroke-miterlimit:10;fill:#ffce63;fill-rule:nonzero;opacity:1;fill-opacity:1"
   d="M 19.306 23.417 c -1.374 0 -2.613 -0.95 -2.925 -2.347 l -1.375 -6.155 c -0.554 -2.48 -2.716 -4.212 -5.258 -4.212 H 3 c -1.657 0 -3 -1.343 -3 -3 s 1.343 -3 3 -3 h 6.749 c 5.372 0 9.942 3.662 11.113 8.904 l 1.375 6.155 c 0.361 1.617 -0.657 3.221 -2.274 3.582 C 19.742 23.393 19.522 23.417 19.306 23.417 z" />
</g>
</svg>
